<?xml version="1.0" standalone="no"?>
<svg xmlns:xlink="http://www.w3.org/1999/xlink" id="wave" style="transform:rotate(0deg); transition: 0.3s" viewBox="0 0 1440 490" version="1.1" xmlns="http://www.w3.org/2000/svg"><defs><linearGradient id="sw-gradient-0" x1="0" x2="0" y1="1" y2="0"><stop stop-color="rgba(255, 0, 0, 1)" offset="0%"/><stop stop-color="rgba(247.361, 255, 36.789, 1)" offset="100%"/></linearGradient></defs><path style="transform:translate(0, 0px); opacity:1" fill="url(#sw-gradient-0)" d="M0,294L30,285.8C60,278,120,261,180,220.5C240,180,300,114,360,122.5C420,131,480,212,540,261.3C600,310,660,327,720,343C780,359,840,376,900,351.2C960,327,1020,261,1080,204.2C1140,147,1200,98,1260,130.7C1320,163,1380,278,1440,285.8C1500,294,1560,196,1620,204.2C1680,212,1740,327,1800,326.7C1860,327,1920,212,1980,212.3C2040,212,2100,327,2160,383.8C2220,441,2280,441,2340,424.7C2400,408,2460,376,2520,343C2580,310,2640,278,2700,269.5C2760,261,2820,278,2880,277.7C2940,278,3000,261,3060,253.2C3120,245,3180,245,3240,253.2C3300,261,3360,278,3420,277.7C3480,278,3540,261,3600,285.8C3660,310,3720,376,3780,383.8C3840,392,3900,343,3960,334.8C4020,327,4080,359,4140,383.8C4200,408,4260,425,4290,432.8L4320,441L4320,490L4290,490C4260,490,4200,490,4140,490C4080,490,4020,490,3960,490C3900,490,3840,490,3780,490C3720,490,3660,490,3600,490C3540,490,3480,490,3420,490C3360,490,3300,490,3240,490C3180,490,3120,490,3060,490C3000,490,2940,490,2880,490C2820,490,2760,490,2700,490C2640,490,2580,490,2520,490C2460,490,2400,490,2340,490C2280,490,2220,490,2160,490C2100,490,2040,490,1980,490C1920,490,1860,490,1800,490C1740,490,1680,490,1620,490C1560,490,1500,490,1440,490C1380,490,1320,490,1260,490C1200,490,1140,490,1080,490C1020,490,960,490,900,490C840,490,780,490,720,490C660,490,600,490,540,490C480,490,420,490,360,490C300,490,240,490,180,490C120,490,60,490,30,490L0,490Z"/><defs><linearGradient id="sw-gradient-1" x1="0" x2="0" y1="1" y2="0"><stop stop-color="rgba(187.147, 245.817, 154.833, 1)" offset="0%"/><stop stop-color="rgba(64.127, 254.924, 157.963, 1)" offset="100%"/></linearGradient></defs><path style="transform:translate(0, 50px); opacity:0.9" fill="url(#sw-gradient-1)" d="M0,49L30,81.7C60,114,120,180,180,204.2C240,229,300,212,360,245C420,278,480,359,540,400.2C600,441,660,441,720,392C780,343,840,245,900,245C960,245,1020,343,1080,375.7C1140,408,1200,376,1260,343C1320,310,1380,278,1440,269.5C1500,261,1560,278,1620,253.2C1680,229,1740,163,1800,179.7C1860,196,1920,294,1980,318.5C2040,343,2100,294,2160,285.8C2220,278,2280,310,2340,277.7C2400,245,2460,147,2520,114.3C2580,82,2640,114,2700,171.5C2760,229,2820,310,2880,326.7C2940,343,3000,294,3060,294C3120,294,3180,343,3240,375.7C3300,408,3360,425,3420,392C3480,359,3540,278,3600,204.2C3660,131,3720,65,3780,49C3840,33,3900,65,3960,130.7C4020,196,4080,294,4140,334.8C4200,376,4260,359,4290,351.2L4320,343L4320,490L4290,490C4260,490,4200,490,4140,490C4080,490,4020,490,3960,490C3900,490,3840,490,3780,490C3720,490,3660,490,3600,490C3540,490,3480,490,3420,490C3360,490,3300,490,3240,490C3180,490,3120,490,3060,490C3000,490,2940,490,2880,490C2820,490,2760,490,2700,490C2640,490,2580,490,2520,490C2460,490,2400,490,2340,490C2280,490,2220,490,2160,490C2100,490,2040,490,1980,490C1920,490,1860,490,1800,490C1740,490,1680,490,1620,490C1560,490,1500,490,1440,490C1380,490,1320,490,1260,490C1200,490,1140,490,1080,490C1020,490,960,490,900,490C840,490,780,490,720,490C660,490,600,490,540,490C480,490,420,490,360,490C300,490,240,490,180,490C120,490,60,490,30,490L0,490Z"/><defs><linearGradient id="sw-gradient-2" x1="0" x2="0" y1="1" y2="0"><stop stop-color="rgba(167.816, 237.278, 255, 1)" offset="0%"/><stop stop-color="rgba(0, 13.103, 255, 1)" offset="100%"/></linearGradient></defs><path style="transform:translate(0, 100px); opacity:0.8" fill="url(#sw-gradient-2)" d="M0,196L30,212.3C60,229,120,261,180,269.5C240,278,300,261,360,261.3C420,261,480,278,540,236.8C600,196,660,98,720,73.5C780,49,840,98,900,147C960,196,1020,245,1080,236.8C1140,229,1200,163,1260,171.5C1320,180,1380,261,1440,302.2C1500,343,1560,343,1620,351.2C1680,359,1740,376,1800,318.5C1860,261,1920,131,1980,81.7C2040,33,2100,65,2160,122.5C2220,180,2280,261,2340,253.2C2400,245,2460,147,2520,138.8C2580,131,2640,212,2700,269.5C2760,327,2820,359,2880,343C2940,327,3000,261,3060,269.5C3120,278,3180,359,3240,343C3300,327,3360,212,3420,147C3480,82,3540,65,3600,57.2C3660,49,3720,49,3780,98C3840,147,3900,245,3960,294C4020,343,4080,343,4140,318.5C4200,294,4260,245,4290,220.5L4320,196L4320,490L4290,490C4260,490,4200,490,4140,490C4080,490,4020,490,3960,490C3900,490,3840,490,3780,490C3720,490,3660,490,3600,490C3540,490,3480,490,3420,490C3360,490,3300,490,3240,490C3180,490,3120,490,3060,490C3000,490,2940,490,2880,490C2820,490,2760,490,2700,490C2640,490,2580,490,2520,490C2460,490,2400,490,2340,490C2280,490,2220,490,2160,490C2100,490,2040,490,1980,490C1920,490,1860,490,1800,490C1740,490,1680,490,1620,490C1560,490,1500,490,1440,490C1380,490,1320,490,1260,490C1200,490,1140,490,1080,490C1020,490,960,490,900,490C840,490,780,490,720,490C660,490,600,490,540,490C480,490,420,490,360,490C300,490,240,490,180,490C120,490,60,490,30,490L0,490Z"/></svg>